<mxfile host="app.diagrams.net" modified="2024-07-17T14:42:35.011Z" agent="Mozilla/5.0 (Windows NT 10.0; Win64; x64) AppleWebKit/537.36 (KHTML, like Gecko) Chrome/123.0.0.0 Safari/537.36 OPR/109.0.0.0" etag="DiRAZK3Fbq8ItLpuS8gA" version="24.7.0" type="github">
  <diagram name="Strona-1" id="58vzsWFteU43axuG1F1b">
    <mxGraphModel dx="2456" dy="2089" grid="1" gridSize="10" guides="1" tooltips="1" connect="1" arrows="1" fold="1" page="1" pageScale="1" pageWidth="827" pageHeight="1169" math="0" shadow="0">
      <root>
        <mxCell id="0" />
        <mxCell id="1" parent="0" />
        <mxCell id="nTfqDTVIe5dX-x47f49g-2" value="&lt;h1&gt;&lt;b&gt;UI&lt;/b&gt;&lt;/h1&gt;" style="text;html=1;align=center;verticalAlign=middle;whiteSpace=wrap;rounded=0;" vertex="1" parent="1">
          <mxGeometry x="-533" width="240" height="40" as="geometry" />
        </mxCell>
        <mxCell id="nTfqDTVIe5dX-x47f49g-3" value="&lt;h1&gt;Controllers&lt;/h1&gt;" style="text;html=1;align=center;verticalAlign=middle;whiteSpace=wrap;rounded=0;" vertex="1" parent="1">
          <mxGeometry x="334" width="160" height="40" as="geometry" />
        </mxCell>
        <mxCell id="nTfqDTVIe5dX-x47f49g-4" value="&lt;h1&gt;&lt;b&gt;Services&lt;/b&gt;&lt;/h1&gt;" style="text;html=1;align=center;verticalAlign=middle;whiteSpace=wrap;rounded=0;" vertex="1" parent="1">
          <mxGeometry x="1161" width="160" height="40" as="geometry" />
        </mxCell>
        <mxCell id="nTfqDTVIe5dX-x47f49g-6" value="&lt;h1&gt;&lt;b&gt;Repositories&lt;/b&gt;&lt;/h1&gt;" style="text;html=1;align=center;verticalAlign=middle;whiteSpace=wrap;rounded=0;" vertex="1" parent="1">
          <mxGeometry x="1988" width="160" height="40" as="geometry" />
        </mxCell>
        <mxCell id="nTfqDTVIe5dX-x47f49g-7" value="&lt;h1&gt;&lt;b&gt;Database&lt;/b&gt;&lt;/h1&gt;" style="text;html=1;align=center;verticalAlign=middle;whiteSpace=wrap;rounded=0;" vertex="1" parent="1">
          <mxGeometry x="2820" width="160" height="40" as="geometry" />
        </mxCell>
        <mxCell id="nTfqDTVIe5dX-x47f49g-60" value="Missions" style="shape=table;startSize=30;container=1;collapsible=0;childLayout=tableLayout;strokeColor=#6c8ebf;fontSize=16;fillColor=#dae8fc;" vertex="1" parent="1">
          <mxGeometry x="2720" y="670" width="360" height="430" as="geometry" />
        </mxCell>
        <mxCell id="nTfqDTVIe5dX-x47f49g-61" value="" style="shape=tableRow;horizontal=0;startSize=0;swimlaneHead=0;swimlaneBody=0;strokeColor=inherit;top=0;left=0;bottom=0;right=0;collapsible=0;dropTarget=0;fillColor=none;points=[[0,0.5],[1,0.5]];portConstraint=eastwest;fontSize=16;html=1;" vertex="1" parent="nTfqDTVIe5dX-x47f49g-60">
          <mxGeometry y="30" width="360" height="44" as="geometry" />
        </mxCell>
        <mxCell id="nTfqDTVIe5dX-x47f49g-62" value="id" style="shape=partialRectangle;connectable=0;strokeColor=inherit;overflow=hidden;fillColor=none;top=0;left=0;bottom=0;right=0;pointerEvents=1;fontSize=16;align=center;verticalAlign=middle;labelPosition=center;verticalLabelPosition=middle;whiteSpace=wrap;html=1;" vertex="1" parent="nTfqDTVIe5dX-x47f49g-61">
          <mxGeometry width="174" height="44" as="geometry">
            <mxRectangle width="174" height="44" as="alternateBounds" />
          </mxGeometry>
        </mxCell>
        <mxCell id="nTfqDTVIe5dX-x47f49g-63" value="GUID, PK" style="shape=partialRectangle;whiteSpace=wrap;connectable=0;strokeColor=inherit;overflow=hidden;fillColor=none;top=0;left=0;bottom=0;right=0;pointerEvents=1;fontSize=16;" vertex="1" parent="nTfqDTVIe5dX-x47f49g-61">
          <mxGeometry x="174" width="186" height="44" as="geometry">
            <mxRectangle width="186" height="44" as="alternateBounds" />
          </mxGeometry>
        </mxCell>
        <mxCell id="nTfqDTVIe5dX-x47f49g-65" value="" style="shape=tableRow;horizontal=0;startSize=0;swimlaneHead=0;swimlaneBody=0;strokeColor=inherit;top=0;left=0;bottom=0;right=0;collapsible=0;dropTarget=0;fillColor=none;points=[[0,0.5],[1,0.5]];portConstraint=eastwest;fontSize=16;html=1;" vertex="1" parent="nTfqDTVIe5dX-x47f49g-60">
          <mxGeometry y="74" width="360" height="45" as="geometry" />
        </mxCell>
        <mxCell id="nTfqDTVIe5dX-x47f49g-66" value="title" style="shape=partialRectangle;connectable=0;strokeColor=inherit;overflow=hidden;fillColor=none;top=0;left=0;bottom=0;right=0;pointerEvents=1;fontSize=16;align=center;verticalAlign=middle;labelPosition=center;verticalLabelPosition=middle;whiteSpace=wrap;html=1;" vertex="1" parent="nTfqDTVIe5dX-x47f49g-65">
          <mxGeometry width="174" height="45" as="geometry">
            <mxRectangle width="174" height="45" as="alternateBounds" />
          </mxGeometry>
        </mxCell>
        <mxCell id="nTfqDTVIe5dX-x47f49g-67" value="VARCHAR" style="shape=partialRectangle;whiteSpace=wrap;connectable=0;strokeColor=inherit;overflow=hidden;fillColor=none;top=0;left=0;bottom=0;right=0;pointerEvents=1;fontSize=16;" vertex="1" parent="nTfqDTVIe5dX-x47f49g-65">
          <mxGeometry x="174" width="186" height="45" as="geometry">
            <mxRectangle width="186" height="45" as="alternateBounds" />
          </mxGeometry>
        </mxCell>
        <mxCell id="nTfqDTVIe5dX-x47f49g-69" value="" style="shape=tableRow;horizontal=0;startSize=0;swimlaneHead=0;swimlaneBody=0;strokeColor=inherit;top=0;left=0;bottom=0;right=0;collapsible=0;dropTarget=0;fillColor=none;points=[[0,0.5],[1,0.5]];portConstraint=eastwest;fontSize=16;html=1;" vertex="1" parent="nTfqDTVIe5dX-x47f49g-60">
          <mxGeometry y="119" width="360" height="44" as="geometry" />
        </mxCell>
        <mxCell id="nTfqDTVIe5dX-x47f49g-70" value="description" style="shape=partialRectangle;connectable=0;strokeColor=inherit;overflow=hidden;fillColor=none;top=0;left=0;bottom=0;right=0;pointerEvents=1;fontSize=16;align=center;verticalAlign=middle;labelPosition=center;verticalLabelPosition=middle;whiteSpace=wrap;html=1;" vertex="1" parent="nTfqDTVIe5dX-x47f49g-69">
          <mxGeometry width="174" height="44" as="geometry">
            <mxRectangle width="174" height="44" as="alternateBounds" />
          </mxGeometry>
        </mxCell>
        <mxCell id="nTfqDTVIe5dX-x47f49g-71" value="VARCHAR, NULL" style="shape=partialRectangle;whiteSpace=wrap;connectable=0;strokeColor=inherit;overflow=hidden;fillColor=none;top=0;left=0;bottom=0;right=0;pointerEvents=1;fontSize=16;" vertex="1" parent="nTfqDTVIe5dX-x47f49g-69">
          <mxGeometry x="174" width="186" height="44" as="geometry">
            <mxRectangle width="186" height="44" as="alternateBounds" />
          </mxGeometry>
        </mxCell>
        <mxCell id="nTfqDTVIe5dX-x47f49g-114" value="" style="shape=tableRow;horizontal=0;startSize=0;swimlaneHead=0;swimlaneBody=0;strokeColor=inherit;top=0;left=0;bottom=0;right=0;collapsible=0;dropTarget=0;fillColor=none;points=[[0,0.5],[1,0.5]];portConstraint=eastwest;fontSize=16;html=1;" vertex="1" parent="nTfqDTVIe5dX-x47f49g-60">
          <mxGeometry y="163" width="360" height="45" as="geometry" />
        </mxCell>
        <mxCell id="nTfqDTVIe5dX-x47f49g-115" value="difficulty" style="shape=partialRectangle;connectable=0;strokeColor=inherit;overflow=hidden;fillColor=none;top=0;left=0;bottom=0;right=0;pointerEvents=1;fontSize=16;align=center;verticalAlign=middle;labelPosition=center;verticalLabelPosition=middle;whiteSpace=wrap;html=1;" vertex="1" parent="nTfqDTVIe5dX-x47f49g-114">
          <mxGeometry width="174" height="45" as="geometry">
            <mxRectangle width="174" height="45" as="alternateBounds" />
          </mxGeometry>
        </mxCell>
        <mxCell id="nTfqDTVIe5dX-x47f49g-116" value="ENUM" style="shape=partialRectangle;whiteSpace=wrap;connectable=0;strokeColor=inherit;overflow=hidden;fillColor=none;top=0;left=0;bottom=0;right=0;pointerEvents=1;fontSize=16;" vertex="1" parent="nTfqDTVIe5dX-x47f49g-114">
          <mxGeometry x="174" width="186" height="45" as="geometry">
            <mxRectangle width="186" height="45" as="alternateBounds" />
          </mxGeometry>
        </mxCell>
        <mxCell id="nTfqDTVIe5dX-x47f49g-117" value="" style="shape=tableRow;horizontal=0;startSize=0;swimlaneHead=0;swimlaneBody=0;strokeColor=inherit;top=0;left=0;bottom=0;right=0;collapsible=0;dropTarget=0;fillColor=none;points=[[0,0.5],[1,0.5]];portConstraint=eastwest;fontSize=16;html=1;" vertex="1" parent="nTfqDTVIe5dX-x47f49g-60">
          <mxGeometry y="208" width="360" height="44" as="geometry" />
        </mxCell>
        <mxCell id="nTfqDTVIe5dX-x47f49g-118" value="xp_reward" style="shape=partialRectangle;connectable=0;strokeColor=inherit;overflow=hidden;fillColor=none;top=0;left=0;bottom=0;right=0;pointerEvents=1;fontSize=16;align=center;verticalAlign=middle;labelPosition=center;verticalLabelPosition=middle;whiteSpace=wrap;html=1;" vertex="1" parent="nTfqDTVIe5dX-x47f49g-117">
          <mxGeometry width="174" height="44" as="geometry">
            <mxRectangle width="174" height="44" as="alternateBounds" />
          </mxGeometry>
        </mxCell>
        <mxCell id="nTfqDTVIe5dX-x47f49g-119" value="INT" style="shape=partialRectangle;whiteSpace=wrap;connectable=0;strokeColor=inherit;overflow=hidden;fillColor=none;top=0;left=0;bottom=0;right=0;pointerEvents=1;fontSize=16;" vertex="1" parent="nTfqDTVIe5dX-x47f49g-117">
          <mxGeometry x="174" width="186" height="44" as="geometry">
            <mxRectangle width="186" height="44" as="alternateBounds" />
          </mxGeometry>
        </mxCell>
        <mxCell id="nTfqDTVIe5dX-x47f49g-120" value="" style="shape=tableRow;horizontal=0;startSize=0;swimlaneHead=0;swimlaneBody=0;strokeColor=inherit;top=0;left=0;bottom=0;right=0;collapsible=0;dropTarget=0;fillColor=none;points=[[0,0.5],[1,0.5]];portConstraint=eastwest;fontSize=16;html=1;" vertex="1" parent="nTfqDTVIe5dX-x47f49g-60">
          <mxGeometry y="252" width="360" height="45" as="geometry" />
        </mxCell>
        <mxCell id="nTfqDTVIe5dX-x47f49g-121" value="created_at" style="shape=partialRectangle;connectable=0;strokeColor=inherit;overflow=hidden;fillColor=none;top=0;left=0;bottom=0;right=0;pointerEvents=1;fontSize=16;align=center;verticalAlign=middle;labelPosition=center;verticalLabelPosition=middle;whiteSpace=wrap;html=1;" vertex="1" parent="nTfqDTVIe5dX-x47f49g-120">
          <mxGeometry width="174" height="45" as="geometry">
            <mxRectangle width="174" height="45" as="alternateBounds" />
          </mxGeometry>
        </mxCell>
        <mxCell id="nTfqDTVIe5dX-x47f49g-122" value="DATE" style="shape=partialRectangle;whiteSpace=wrap;connectable=0;strokeColor=inherit;overflow=hidden;fillColor=none;top=0;left=0;bottom=0;right=0;pointerEvents=1;fontSize=16;" vertex="1" parent="nTfqDTVIe5dX-x47f49g-120">
          <mxGeometry x="174" width="186" height="45" as="geometry">
            <mxRectangle width="186" height="45" as="alternateBounds" />
          </mxGeometry>
        </mxCell>
        <mxCell id="nTfqDTVIe5dX-x47f49g-123" value="" style="shape=tableRow;horizontal=0;startSize=0;swimlaneHead=0;swimlaneBody=0;strokeColor=inherit;top=0;left=0;bottom=0;right=0;collapsible=0;dropTarget=0;fillColor=none;points=[[0,0.5],[1,0.5]];portConstraint=eastwest;fontSize=16;html=1;" vertex="1" parent="nTfqDTVIe5dX-x47f49g-60">
          <mxGeometry y="297" width="360" height="44" as="geometry" />
        </mxCell>
        <mxCell id="nTfqDTVIe5dX-x47f49g-124" value="is_completed" style="shape=partialRectangle;connectable=0;strokeColor=inherit;overflow=hidden;fillColor=none;top=0;left=0;bottom=0;right=0;pointerEvents=1;fontSize=16;align=center;verticalAlign=middle;labelPosition=center;verticalLabelPosition=middle;whiteSpace=wrap;html=1;" vertex="1" parent="nTfqDTVIe5dX-x47f49g-123">
          <mxGeometry width="174" height="44" as="geometry">
            <mxRectangle width="174" height="44" as="alternateBounds" />
          </mxGeometry>
        </mxCell>
        <mxCell id="nTfqDTVIe5dX-x47f49g-125" value="BOOL" style="shape=partialRectangle;whiteSpace=wrap;connectable=0;strokeColor=inherit;overflow=hidden;fillColor=none;top=0;left=0;bottom=0;right=0;pointerEvents=1;fontSize=16;" vertex="1" parent="nTfqDTVIe5dX-x47f49g-123">
          <mxGeometry x="174" width="186" height="44" as="geometry">
            <mxRectangle width="186" height="44" as="alternateBounds" />
          </mxGeometry>
        </mxCell>
        <mxCell id="nTfqDTVIe5dX-x47f49g-126" value="" style="shape=tableRow;horizontal=0;startSize=0;swimlaneHead=0;swimlaneBody=0;strokeColor=inherit;top=0;left=0;bottom=0;right=0;collapsible=0;dropTarget=0;fillColor=none;points=[[0,0.5],[1,0.5]];portConstraint=eastwest;fontSize=16;html=1;" vertex="1" parent="nTfqDTVIe5dX-x47f49g-60">
          <mxGeometry y="341" width="360" height="45" as="geometry" />
        </mxCell>
        <mxCell id="nTfqDTVIe5dX-x47f49g-127" value="completed_at" style="shape=partialRectangle;connectable=0;strokeColor=inherit;overflow=hidden;fillColor=none;top=0;left=0;bottom=0;right=0;pointerEvents=1;fontSize=16;align=center;verticalAlign=middle;labelPosition=center;verticalLabelPosition=middle;whiteSpace=wrap;html=1;" vertex="1" parent="nTfqDTVIe5dX-x47f49g-126">
          <mxGeometry width="174" height="45" as="geometry">
            <mxRectangle width="174" height="45" as="alternateBounds" />
          </mxGeometry>
        </mxCell>
        <mxCell id="nTfqDTVIe5dX-x47f49g-128" value="DATE, NULL" style="shape=partialRectangle;whiteSpace=wrap;connectable=0;strokeColor=inherit;overflow=hidden;fillColor=none;top=0;left=0;bottom=0;right=0;pointerEvents=1;fontSize=16;" vertex="1" parent="nTfqDTVIe5dX-x47f49g-126">
          <mxGeometry x="174" width="186" height="45" as="geometry">
            <mxRectangle width="186" height="45" as="alternateBounds" />
          </mxGeometry>
        </mxCell>
        <mxCell id="nTfqDTVIe5dX-x47f49g-129" value="" style="shape=tableRow;horizontal=0;startSize=0;swimlaneHead=0;swimlaneBody=0;strokeColor=inherit;top=0;left=0;bottom=0;right=0;collapsible=0;dropTarget=0;fillColor=none;points=[[0,0.5],[1,0.5]];portConstraint=eastwest;fontSize=16;html=1;" vertex="1" parent="nTfqDTVIe5dX-x47f49g-60">
          <mxGeometry y="386" width="360" height="44" as="geometry" />
        </mxCell>
        <mxCell id="nTfqDTVIe5dX-x47f49g-130" value="user_id" style="shape=partialRectangle;connectable=0;strokeColor=inherit;overflow=hidden;fillColor=none;top=0;left=0;bottom=0;right=0;pointerEvents=1;fontSize=16;align=center;verticalAlign=middle;labelPosition=center;verticalLabelPosition=middle;whiteSpace=wrap;html=1;" vertex="1" parent="nTfqDTVIe5dX-x47f49g-129">
          <mxGeometry width="174" height="44" as="geometry">
            <mxRectangle width="174" height="44" as="alternateBounds" />
          </mxGeometry>
        </mxCell>
        <mxCell id="nTfqDTVIe5dX-x47f49g-131" value="FK(Users)" style="shape=partialRectangle;whiteSpace=wrap;connectable=0;strokeColor=inherit;overflow=hidden;fillColor=none;top=0;left=0;bottom=0;right=0;pointerEvents=1;fontSize=16;" vertex="1" parent="nTfqDTVIe5dX-x47f49g-129">
          <mxGeometry x="174" width="186" height="44" as="geometry">
            <mxRectangle width="186" height="44" as="alternateBounds" />
          </mxGeometry>
        </mxCell>
        <mxCell id="nTfqDTVIe5dX-x47f49g-74" value="Subtasks" style="shape=table;startSize=30;container=1;collapsible=0;childLayout=tableLayout;strokeColor=#6c8ebf;fontSize=16;fillColor=#dae8fc;" vertex="1" parent="1">
          <mxGeometry x="2720.5" y="1130" width="360" height="190" as="geometry" />
        </mxCell>
        <mxCell id="nTfqDTVIe5dX-x47f49g-75" value="" style="shape=tableRow;horizontal=0;startSize=0;swimlaneHead=0;swimlaneBody=0;strokeColor=inherit;top=0;left=0;bottom=0;right=0;collapsible=0;dropTarget=0;fillColor=none;points=[[0,0.5],[1,0.5]];portConstraint=eastwest;fontSize=16;" vertex="1" parent="nTfqDTVIe5dX-x47f49g-74">
          <mxGeometry y="30" width="360" height="40" as="geometry" />
        </mxCell>
        <mxCell id="nTfqDTVIe5dX-x47f49g-76" value="id" style="shape=partialRectangle;html=1;whiteSpace=wrap;connectable=0;strokeColor=inherit;overflow=hidden;fillColor=none;top=0;left=0;bottom=0;right=0;pointerEvents=1;fontSize=16;" vertex="1" parent="nTfqDTVIe5dX-x47f49g-75">
          <mxGeometry width="180" height="40" as="geometry">
            <mxRectangle width="180" height="40" as="alternateBounds" />
          </mxGeometry>
        </mxCell>
        <mxCell id="nTfqDTVIe5dX-x47f49g-77" value="INT, PK" style="shape=partialRectangle;html=1;whiteSpace=wrap;connectable=0;strokeColor=inherit;overflow=hidden;fillColor=none;top=0;left=0;bottom=0;right=0;pointerEvents=1;fontSize=16;" vertex="1" parent="nTfqDTVIe5dX-x47f49g-75">
          <mxGeometry x="180" width="180" height="40" as="geometry">
            <mxRectangle width="180" height="40" as="alternateBounds" />
          </mxGeometry>
        </mxCell>
        <mxCell id="nTfqDTVIe5dX-x47f49g-78" value="" style="shape=tableRow;horizontal=0;startSize=0;swimlaneHead=0;swimlaneBody=0;strokeColor=inherit;top=0;left=0;bottom=0;right=0;collapsible=0;dropTarget=0;fillColor=none;points=[[0,0.5],[1,0.5]];portConstraint=eastwest;fontSize=16;" vertex="1" parent="nTfqDTVIe5dX-x47f49g-74">
          <mxGeometry y="70" width="360" height="40" as="geometry" />
        </mxCell>
        <mxCell id="nTfqDTVIe5dX-x47f49g-79" value="title" style="shape=partialRectangle;html=1;whiteSpace=wrap;connectable=0;strokeColor=inherit;overflow=hidden;fillColor=none;top=0;left=0;bottom=0;right=0;pointerEvents=1;fontSize=16;" vertex="1" parent="nTfqDTVIe5dX-x47f49g-78">
          <mxGeometry width="180" height="40" as="geometry">
            <mxRectangle width="180" height="40" as="alternateBounds" />
          </mxGeometry>
        </mxCell>
        <mxCell id="nTfqDTVIe5dX-x47f49g-80" value="VARCHAR" style="shape=partialRectangle;html=1;whiteSpace=wrap;connectable=0;strokeColor=inherit;overflow=hidden;fillColor=none;top=0;left=0;bottom=0;right=0;pointerEvents=1;fontSize=16;" vertex="1" parent="nTfqDTVIe5dX-x47f49g-78">
          <mxGeometry x="180" width="180" height="40" as="geometry">
            <mxRectangle width="180" height="40" as="alternateBounds" />
          </mxGeometry>
        </mxCell>
        <mxCell id="nTfqDTVIe5dX-x47f49g-81" value="" style="shape=tableRow;horizontal=0;startSize=0;swimlaneHead=0;swimlaneBody=0;strokeColor=inherit;top=0;left=0;bottom=0;right=0;collapsible=0;dropTarget=0;fillColor=none;points=[[0,0.5],[1,0.5]];portConstraint=eastwest;fontSize=16;" vertex="1" parent="nTfqDTVIe5dX-x47f49g-74">
          <mxGeometry y="110" width="360" height="40" as="geometry" />
        </mxCell>
        <mxCell id="nTfqDTVIe5dX-x47f49g-82" value="is_completed" style="shape=partialRectangle;html=1;whiteSpace=wrap;connectable=0;strokeColor=inherit;overflow=hidden;fillColor=none;top=0;left=0;bottom=0;right=0;pointerEvents=1;fontSize=16;" vertex="1" parent="nTfqDTVIe5dX-x47f49g-81">
          <mxGeometry width="180" height="40" as="geometry">
            <mxRectangle width="180" height="40" as="alternateBounds" />
          </mxGeometry>
        </mxCell>
        <mxCell id="nTfqDTVIe5dX-x47f49g-83" value="BOOL" style="shape=partialRectangle;html=1;whiteSpace=wrap;connectable=0;strokeColor=inherit;overflow=hidden;fillColor=none;top=0;left=0;bottom=0;right=0;pointerEvents=1;fontSize=16;" vertex="1" parent="nTfqDTVIe5dX-x47f49g-81">
          <mxGeometry x="180" width="180" height="40" as="geometry">
            <mxRectangle width="180" height="40" as="alternateBounds" />
          </mxGeometry>
        </mxCell>
        <mxCell id="nTfqDTVIe5dX-x47f49g-135" style="shape=tableRow;horizontal=0;startSize=0;swimlaneHead=0;swimlaneBody=0;strokeColor=inherit;top=0;left=0;bottom=0;right=0;collapsible=0;dropTarget=0;fillColor=none;points=[[0,0.5],[1,0.5]];portConstraint=eastwest;fontSize=16;" vertex="1" parent="nTfqDTVIe5dX-x47f49g-74">
          <mxGeometry y="150" width="360" height="40" as="geometry" />
        </mxCell>
        <mxCell id="nTfqDTVIe5dX-x47f49g-136" value="mission_id" style="shape=partialRectangle;html=1;whiteSpace=wrap;connectable=0;strokeColor=inherit;overflow=hidden;fillColor=none;top=0;left=0;bottom=0;right=0;pointerEvents=1;fontSize=16;" vertex="1" parent="nTfqDTVIe5dX-x47f49g-135">
          <mxGeometry width="180" height="40" as="geometry">
            <mxRectangle width="180" height="40" as="alternateBounds" />
          </mxGeometry>
        </mxCell>
        <mxCell id="nTfqDTVIe5dX-x47f49g-137" value="FK(Missions)" style="shape=partialRectangle;html=1;whiteSpace=wrap;connectable=0;strokeColor=inherit;overflow=hidden;fillColor=none;top=0;left=0;bottom=0;right=0;pointerEvents=1;fontSize=16;" vertex="1" parent="nTfqDTVIe5dX-x47f49g-135">
          <mxGeometry x="180" width="180" height="40" as="geometry">
            <mxRectangle width="180" height="40" as="alternateBounds" />
          </mxGeometry>
        </mxCell>
        <mxCell id="nTfqDTVIe5dX-x47f49g-84" value="ErrorLogs" style="shape=table;startSize=30;container=1;collapsible=0;childLayout=tableLayout;strokeColor=#6c8ebf;fontSize=16;fillColor=#dae8fc;" vertex="1" parent="1">
          <mxGeometry x="2719.5" y="1910" width="360" height="160" as="geometry" />
        </mxCell>
        <mxCell id="nTfqDTVIe5dX-x47f49g-85" value="" style="shape=tableRow;horizontal=0;startSize=0;swimlaneHead=0;swimlaneBody=0;strokeColor=inherit;top=0;left=0;bottom=0;right=0;collapsible=0;dropTarget=0;fillColor=none;points=[[0,0.5],[1,0.5]];portConstraint=eastwest;fontSize=16;" vertex="1" parent="nTfqDTVIe5dX-x47f49g-84">
          <mxGeometry y="30" width="360" height="43" as="geometry" />
        </mxCell>
        <mxCell id="nTfqDTVIe5dX-x47f49g-86" value="id" style="shape=partialRectangle;html=1;whiteSpace=wrap;connectable=0;strokeColor=inherit;overflow=hidden;fillColor=none;top=0;left=0;bottom=0;right=0;pointerEvents=1;fontSize=16;" vertex="1" parent="nTfqDTVIe5dX-x47f49g-85">
          <mxGeometry width="180" height="43" as="geometry">
            <mxRectangle width="180" height="43" as="alternateBounds" />
          </mxGeometry>
        </mxCell>
        <mxCell id="nTfqDTVIe5dX-x47f49g-87" value="INT, PK" style="shape=partialRectangle;html=1;whiteSpace=wrap;connectable=0;strokeColor=inherit;overflow=hidden;fillColor=none;top=0;left=0;bottom=0;right=0;pointerEvents=1;fontSize=16;" vertex="1" parent="nTfqDTVIe5dX-x47f49g-85">
          <mxGeometry x="180" width="180" height="43" as="geometry">
            <mxRectangle width="180" height="43" as="alternateBounds" />
          </mxGeometry>
        </mxCell>
        <mxCell id="nTfqDTVIe5dX-x47f49g-88" value="" style="shape=tableRow;horizontal=0;startSize=0;swimlaneHead=0;swimlaneBody=0;strokeColor=inherit;top=0;left=0;bottom=0;right=0;collapsible=0;dropTarget=0;fillColor=none;points=[[0,0.5],[1,0.5]];portConstraint=eastwest;fontSize=16;" vertex="1" parent="nTfqDTVIe5dX-x47f49g-84">
          <mxGeometry y="73" width="360" height="44" as="geometry" />
        </mxCell>
        <mxCell id="nTfqDTVIe5dX-x47f49g-89" value="message" style="shape=partialRectangle;html=1;whiteSpace=wrap;connectable=0;strokeColor=inherit;overflow=hidden;fillColor=none;top=0;left=0;bottom=0;right=0;pointerEvents=1;fontSize=16;" vertex="1" parent="nTfqDTVIe5dX-x47f49g-88">
          <mxGeometry width="180" height="44" as="geometry">
            <mxRectangle width="180" height="44" as="alternateBounds" />
          </mxGeometry>
        </mxCell>
        <mxCell id="nTfqDTVIe5dX-x47f49g-90" value="VARCHAR" style="shape=partialRectangle;html=1;whiteSpace=wrap;connectable=0;strokeColor=inherit;overflow=hidden;fillColor=none;top=0;left=0;bottom=0;right=0;pointerEvents=1;fontSize=16;" vertex="1" parent="nTfqDTVIe5dX-x47f49g-88">
          <mxGeometry x="180" width="180" height="44" as="geometry">
            <mxRectangle width="180" height="44" as="alternateBounds" />
          </mxGeometry>
        </mxCell>
        <mxCell id="nTfqDTVIe5dX-x47f49g-91" value="" style="shape=tableRow;horizontal=0;startSize=0;swimlaneHead=0;swimlaneBody=0;strokeColor=inherit;top=0;left=0;bottom=0;right=0;collapsible=0;dropTarget=0;fillColor=none;points=[[0,0.5],[1,0.5]];portConstraint=eastwest;fontSize=16;" vertex="1" parent="nTfqDTVIe5dX-x47f49g-84">
          <mxGeometry y="117" width="360" height="43" as="geometry" />
        </mxCell>
        <mxCell id="nTfqDTVIe5dX-x47f49g-92" value="date" style="shape=partialRectangle;html=1;whiteSpace=wrap;connectable=0;strokeColor=inherit;overflow=hidden;fillColor=none;top=0;left=0;bottom=0;right=0;pointerEvents=1;fontSize=16;" vertex="1" parent="nTfqDTVIe5dX-x47f49g-91">
          <mxGeometry width="180" height="43" as="geometry">
            <mxRectangle width="180" height="43" as="alternateBounds" />
          </mxGeometry>
        </mxCell>
        <mxCell id="nTfqDTVIe5dX-x47f49g-93" value="DATE" style="shape=partialRectangle;html=1;whiteSpace=wrap;connectable=0;strokeColor=inherit;overflow=hidden;fillColor=none;top=0;left=0;bottom=0;right=0;pointerEvents=1;fontSize=16;" vertex="1" parent="nTfqDTVIe5dX-x47f49g-91">
          <mxGeometry x="180" width="180" height="43" as="geometry">
            <mxRectangle width="180" height="43" as="alternateBounds" />
          </mxGeometry>
        </mxCell>
        <mxCell id="nTfqDTVIe5dX-x47f49g-94" value="Achievements" style="shape=table;startSize=30;container=1;collapsible=0;childLayout=tableLayout;strokeColor=#6c8ebf;fontSize=16;fillColor=#dae8fc;" vertex="1" parent="1">
          <mxGeometry x="2720.5" y="1360" width="360" height="230" as="geometry" />
        </mxCell>
        <mxCell id="nTfqDTVIe5dX-x47f49g-95" value="" style="shape=tableRow;horizontal=0;startSize=0;swimlaneHead=0;swimlaneBody=0;strokeColor=inherit;top=0;left=0;bottom=0;right=0;collapsible=0;dropTarget=0;fillColor=none;points=[[0,0.5],[1,0.5]];portConstraint=eastwest;fontSize=16;" vertex="1" parent="nTfqDTVIe5dX-x47f49g-94">
          <mxGeometry y="30" width="360" height="40" as="geometry" />
        </mxCell>
        <mxCell id="nTfqDTVIe5dX-x47f49g-96" value="id" style="shape=partialRectangle;html=1;whiteSpace=wrap;connectable=0;strokeColor=inherit;overflow=hidden;fillColor=none;top=0;left=0;bottom=0;right=0;pointerEvents=1;fontSize=16;" vertex="1" parent="nTfqDTVIe5dX-x47f49g-95">
          <mxGeometry width="180" height="40" as="geometry">
            <mxRectangle width="180" height="40" as="alternateBounds" />
          </mxGeometry>
        </mxCell>
        <mxCell id="nTfqDTVIe5dX-x47f49g-97" value="INT, PK" style="shape=partialRectangle;html=1;whiteSpace=wrap;connectable=0;strokeColor=inherit;overflow=hidden;fillColor=none;top=0;left=0;bottom=0;right=0;pointerEvents=1;fontSize=16;" vertex="1" parent="nTfqDTVIe5dX-x47f49g-95">
          <mxGeometry x="180" width="180" height="40" as="geometry">
            <mxRectangle width="180" height="40" as="alternateBounds" />
          </mxGeometry>
        </mxCell>
        <mxCell id="nTfqDTVIe5dX-x47f49g-98" value="" style="shape=tableRow;horizontal=0;startSize=0;swimlaneHead=0;swimlaneBody=0;strokeColor=inherit;top=0;left=0;bottom=0;right=0;collapsible=0;dropTarget=0;fillColor=none;points=[[0,0.5],[1,0.5]];portConstraint=eastwest;fontSize=16;" vertex="1" parent="nTfqDTVIe5dX-x47f49g-94">
          <mxGeometry y="70" width="360" height="40" as="geometry" />
        </mxCell>
        <mxCell id="nTfqDTVIe5dX-x47f49g-99" value="title" style="shape=partialRectangle;html=1;whiteSpace=wrap;connectable=0;strokeColor=inherit;overflow=hidden;fillColor=none;top=0;left=0;bottom=0;right=0;pointerEvents=1;fontSize=16;" vertex="1" parent="nTfqDTVIe5dX-x47f49g-98">
          <mxGeometry width="180" height="40" as="geometry">
            <mxRectangle width="180" height="40" as="alternateBounds" />
          </mxGeometry>
        </mxCell>
        <mxCell id="nTfqDTVIe5dX-x47f49g-100" value="VARCHAR" style="shape=partialRectangle;html=1;whiteSpace=wrap;connectable=0;strokeColor=inherit;overflow=hidden;fillColor=none;top=0;left=0;bottom=0;right=0;pointerEvents=1;fontSize=16;" vertex="1" parent="nTfqDTVIe5dX-x47f49g-98">
          <mxGeometry x="180" width="180" height="40" as="geometry">
            <mxRectangle width="180" height="40" as="alternateBounds" />
          </mxGeometry>
        </mxCell>
        <mxCell id="nTfqDTVIe5dX-x47f49g-101" value="" style="shape=tableRow;horizontal=0;startSize=0;swimlaneHead=0;swimlaneBody=0;strokeColor=inherit;top=0;left=0;bottom=0;right=0;collapsible=0;dropTarget=0;fillColor=none;points=[[0,0.5],[1,0.5]];portConstraint=eastwest;fontSize=16;" vertex="1" parent="nTfqDTVIe5dX-x47f49g-94">
          <mxGeometry y="110" width="360" height="40" as="geometry" />
        </mxCell>
        <mxCell id="nTfqDTVIe5dX-x47f49g-102" value="requirements" style="shape=partialRectangle;html=1;whiteSpace=wrap;connectable=0;strokeColor=inherit;overflow=hidden;fillColor=none;top=0;left=0;bottom=0;right=0;pointerEvents=1;fontSize=16;" vertex="1" parent="nTfqDTVIe5dX-x47f49g-101">
          <mxGeometry width="180" height="40" as="geometry">
            <mxRectangle width="180" height="40" as="alternateBounds" />
          </mxGeometry>
        </mxCell>
        <mxCell id="nTfqDTVIe5dX-x47f49g-103" value="VARCHAR" style="shape=partialRectangle;html=1;whiteSpace=wrap;connectable=0;strokeColor=inherit;overflow=hidden;fillColor=none;top=0;left=0;bottom=0;right=0;pointerEvents=1;fontSize=16;" vertex="1" parent="nTfqDTVIe5dX-x47f49g-101">
          <mxGeometry x="180" width="180" height="40" as="geometry">
            <mxRectangle width="180" height="40" as="alternateBounds" />
          </mxGeometry>
        </mxCell>
        <mxCell id="nTfqDTVIe5dX-x47f49g-171" style="shape=tableRow;horizontal=0;startSize=0;swimlaneHead=0;swimlaneBody=0;strokeColor=inherit;top=0;left=0;bottom=0;right=0;collapsible=0;dropTarget=0;fillColor=none;points=[[0,0.5],[1,0.5]];portConstraint=eastwest;fontSize=16;" vertex="1" parent="nTfqDTVIe5dX-x47f49g-94">
          <mxGeometry y="150" width="360" height="40" as="geometry" />
        </mxCell>
        <mxCell id="nTfqDTVIe5dX-x47f49g-172" value="xp_reward" style="shape=partialRectangle;html=1;whiteSpace=wrap;connectable=0;strokeColor=inherit;overflow=hidden;fillColor=none;top=0;left=0;bottom=0;right=0;pointerEvents=1;fontSize=16;" vertex="1" parent="nTfqDTVIe5dX-x47f49g-171">
          <mxGeometry width="180" height="40" as="geometry">
            <mxRectangle width="180" height="40" as="alternateBounds" />
          </mxGeometry>
        </mxCell>
        <mxCell id="nTfqDTVIe5dX-x47f49g-173" value="INT" style="shape=partialRectangle;html=1;whiteSpace=wrap;connectable=0;strokeColor=inherit;overflow=hidden;fillColor=none;top=0;left=0;bottom=0;right=0;pointerEvents=1;fontSize=16;" vertex="1" parent="nTfqDTVIe5dX-x47f49g-171">
          <mxGeometry x="180" width="180" height="40" as="geometry">
            <mxRectangle width="180" height="40" as="alternateBounds" />
          </mxGeometry>
        </mxCell>
        <mxCell id="nTfqDTVIe5dX-x47f49g-174" style="shape=tableRow;horizontal=0;startSize=0;swimlaneHead=0;swimlaneBody=0;strokeColor=inherit;top=0;left=0;bottom=0;right=0;collapsible=0;dropTarget=0;fillColor=none;points=[[0,0.5],[1,0.5]];portConstraint=eastwest;fontSize=16;" vertex="1" parent="nTfqDTVIe5dX-x47f49g-94">
          <mxGeometry y="190" width="360" height="40" as="geometry" />
        </mxCell>
        <mxCell id="nTfqDTVIe5dX-x47f49g-175" value="image_url" style="shape=partialRectangle;html=1;whiteSpace=wrap;connectable=0;strokeColor=inherit;overflow=hidden;fillColor=none;top=0;left=0;bottom=0;right=0;pointerEvents=1;fontSize=16;" vertex="1" parent="nTfqDTVIe5dX-x47f49g-174">
          <mxGeometry width="180" height="40" as="geometry">
            <mxRectangle width="180" height="40" as="alternateBounds" />
          </mxGeometry>
        </mxCell>
        <mxCell id="nTfqDTVIe5dX-x47f49g-176" value="VARCHAR" style="shape=partialRectangle;html=1;whiteSpace=wrap;connectable=0;strokeColor=inherit;overflow=hidden;fillColor=none;top=0;left=0;bottom=0;right=0;pointerEvents=1;fontSize=16;" vertex="1" parent="nTfqDTVIe5dX-x47f49g-174">
          <mxGeometry x="180" width="180" height="40" as="geometry">
            <mxRectangle width="180" height="40" as="alternateBounds" />
          </mxGeometry>
        </mxCell>
        <mxCell id="nTfqDTVIe5dX-x47f49g-104" value="Users" style="shape=table;startSize=30;container=1;collapsible=0;childLayout=tableLayout;strokeColor=#6c8ebf;fontSize=16;fillColor=#dae8fc;" vertex="1" parent="1">
          <mxGeometry x="2719.5" y="80" width="361" height="550" as="geometry" />
        </mxCell>
        <mxCell id="nTfqDTVIe5dX-x47f49g-105" value="" style="shape=tableRow;horizontal=0;startSize=0;swimlaneHead=0;swimlaneBody=0;strokeColor=inherit;top=0;left=0;bottom=0;right=0;collapsible=0;dropTarget=0;fillColor=none;points=[[0,0.5],[1,0.5]];portConstraint=eastwest;fontSize=16;" vertex="1" parent="nTfqDTVIe5dX-x47f49g-104">
          <mxGeometry y="30" width="361" height="40" as="geometry" />
        </mxCell>
        <mxCell id="nTfqDTVIe5dX-x47f49g-106" value="id" style="shape=partialRectangle;html=1;whiteSpace=wrap;connectable=0;strokeColor=inherit;overflow=hidden;fillColor=none;top=0;left=0;bottom=0;right=0;pointerEvents=1;fontSize=16;" vertex="1" parent="nTfqDTVIe5dX-x47f49g-105">
          <mxGeometry width="190" height="40" as="geometry">
            <mxRectangle width="190" height="40" as="alternateBounds" />
          </mxGeometry>
        </mxCell>
        <mxCell id="nTfqDTVIe5dX-x47f49g-107" value="PK" style="shape=partialRectangle;html=1;whiteSpace=wrap;connectable=0;strokeColor=inherit;overflow=hidden;fillColor=none;top=0;left=0;bottom=0;right=0;pointerEvents=1;fontSize=16;" vertex="1" parent="nTfqDTVIe5dX-x47f49g-105">
          <mxGeometry x="190" width="171" height="40" as="geometry">
            <mxRectangle width="171" height="40" as="alternateBounds" />
          </mxGeometry>
        </mxCell>
        <mxCell id="nTfqDTVIe5dX-x47f49g-108" value="" style="shape=tableRow;horizontal=0;startSize=0;swimlaneHead=0;swimlaneBody=0;strokeColor=inherit;top=0;left=0;bottom=0;right=0;collapsible=0;dropTarget=0;fillColor=none;points=[[0,0.5],[1,0.5]];portConstraint=eastwest;fontSize=16;" vertex="1" parent="nTfqDTVIe5dX-x47f49g-104">
          <mxGeometry y="70" width="361" height="40" as="geometry" />
        </mxCell>
        <mxCell id="nTfqDTVIe5dX-x47f49g-109" value="username" style="shape=partialRectangle;html=1;whiteSpace=wrap;connectable=0;strokeColor=inherit;overflow=hidden;fillColor=none;top=0;left=0;bottom=0;right=0;pointerEvents=1;fontSize=16;" vertex="1" parent="nTfqDTVIe5dX-x47f49g-108">
          <mxGeometry width="190" height="40" as="geometry">
            <mxRectangle width="190" height="40" as="alternateBounds" />
          </mxGeometry>
        </mxCell>
        <mxCell id="nTfqDTVIe5dX-x47f49g-110" value="VARCHAR, UNIQUE" style="shape=partialRectangle;html=1;whiteSpace=wrap;connectable=0;strokeColor=inherit;overflow=hidden;fillColor=none;top=0;left=0;bottom=0;right=0;pointerEvents=1;fontSize=16;" vertex="1" parent="nTfqDTVIe5dX-x47f49g-108">
          <mxGeometry x="190" width="171" height="40" as="geometry">
            <mxRectangle width="171" height="40" as="alternateBounds" />
          </mxGeometry>
        </mxCell>
        <mxCell id="nTfqDTVIe5dX-x47f49g-111" value="" style="shape=tableRow;horizontal=0;startSize=0;swimlaneHead=0;swimlaneBody=0;strokeColor=inherit;top=0;left=0;bottom=0;right=0;collapsible=0;dropTarget=0;fillColor=none;points=[[0,0.5],[1,0.5]];portConstraint=eastwest;fontSize=16;" vertex="1" parent="nTfqDTVIe5dX-x47f49g-104">
          <mxGeometry y="110" width="361" height="40" as="geometry" />
        </mxCell>
        <mxCell id="nTfqDTVIe5dX-x47f49g-112" value="email" style="shape=partialRectangle;html=1;whiteSpace=wrap;connectable=0;strokeColor=inherit;overflow=hidden;fillColor=none;top=0;left=0;bottom=0;right=0;pointerEvents=1;fontSize=16;" vertex="1" parent="nTfqDTVIe5dX-x47f49g-111">
          <mxGeometry width="190" height="40" as="geometry">
            <mxRectangle width="190" height="40" as="alternateBounds" />
          </mxGeometry>
        </mxCell>
        <mxCell id="nTfqDTVIe5dX-x47f49g-113" value="VARCHAR, UNIQUE" style="shape=partialRectangle;html=1;whiteSpace=wrap;connectable=0;strokeColor=inherit;overflow=hidden;fillColor=none;top=0;left=0;bottom=0;right=0;pointerEvents=1;fontSize=16;" vertex="1" parent="nTfqDTVIe5dX-x47f49g-111">
          <mxGeometry x="190" width="171" height="40" as="geometry">
            <mxRectangle width="171" height="40" as="alternateBounds" />
          </mxGeometry>
        </mxCell>
        <mxCell id="nTfqDTVIe5dX-x47f49g-141" style="shape=tableRow;horizontal=0;startSize=0;swimlaneHead=0;swimlaneBody=0;strokeColor=inherit;top=0;left=0;bottom=0;right=0;collapsible=0;dropTarget=0;fillColor=none;points=[[0,0.5],[1,0.5]];portConstraint=eastwest;fontSize=16;" vertex="1" parent="nTfqDTVIe5dX-x47f49g-104">
          <mxGeometry y="150" width="361" height="40" as="geometry" />
        </mxCell>
        <mxCell id="nTfqDTVIe5dX-x47f49g-142" value="first_name" style="shape=partialRectangle;html=1;whiteSpace=wrap;connectable=0;strokeColor=inherit;overflow=hidden;fillColor=none;top=0;left=0;bottom=0;right=0;pointerEvents=1;fontSize=16;" vertex="1" parent="nTfqDTVIe5dX-x47f49g-141">
          <mxGeometry width="190" height="40" as="geometry">
            <mxRectangle width="190" height="40" as="alternateBounds" />
          </mxGeometry>
        </mxCell>
        <mxCell id="nTfqDTVIe5dX-x47f49g-143" value="VARCHAR" style="shape=partialRectangle;html=1;whiteSpace=wrap;connectable=0;strokeColor=inherit;overflow=hidden;fillColor=none;top=0;left=0;bottom=0;right=0;pointerEvents=1;fontSize=16;" vertex="1" parent="nTfqDTVIe5dX-x47f49g-141">
          <mxGeometry x="190" width="171" height="40" as="geometry">
            <mxRectangle width="171" height="40" as="alternateBounds" />
          </mxGeometry>
        </mxCell>
        <mxCell id="nTfqDTVIe5dX-x47f49g-144" style="shape=tableRow;horizontal=0;startSize=0;swimlaneHead=0;swimlaneBody=0;strokeColor=inherit;top=0;left=0;bottom=0;right=0;collapsible=0;dropTarget=0;fillColor=none;points=[[0,0.5],[1,0.5]];portConstraint=eastwest;fontSize=16;" vertex="1" parent="nTfqDTVIe5dX-x47f49g-104">
          <mxGeometry y="190" width="361" height="40" as="geometry" />
        </mxCell>
        <mxCell id="nTfqDTVIe5dX-x47f49g-145" value="last_name" style="shape=partialRectangle;html=1;whiteSpace=wrap;connectable=0;strokeColor=inherit;overflow=hidden;fillColor=none;top=0;left=0;bottom=0;right=0;pointerEvents=1;fontSize=16;" vertex="1" parent="nTfqDTVIe5dX-x47f49g-144">
          <mxGeometry width="190" height="40" as="geometry">
            <mxRectangle width="190" height="40" as="alternateBounds" />
          </mxGeometry>
        </mxCell>
        <mxCell id="nTfqDTVIe5dX-x47f49g-146" value="VARCHAR, NULL" style="shape=partialRectangle;html=1;whiteSpace=wrap;connectable=0;strokeColor=inherit;overflow=hidden;fillColor=none;top=0;left=0;bottom=0;right=0;pointerEvents=1;fontSize=16;" vertex="1" parent="nTfqDTVIe5dX-x47f49g-144">
          <mxGeometry x="190" width="171" height="40" as="geometry">
            <mxRectangle width="171" height="40" as="alternateBounds" />
          </mxGeometry>
        </mxCell>
        <mxCell id="nTfqDTVIe5dX-x47f49g-147" style="shape=tableRow;horizontal=0;startSize=0;swimlaneHead=0;swimlaneBody=0;strokeColor=inherit;top=0;left=0;bottom=0;right=0;collapsible=0;dropTarget=0;fillColor=none;points=[[0,0.5],[1,0.5]];portConstraint=eastwest;fontSize=16;" vertex="1" parent="nTfqDTVIe5dX-x47f49g-104">
          <mxGeometry y="230" width="361" height="40" as="geometry" />
        </mxCell>
        <mxCell id="nTfqDTVIe5dX-x47f49g-148" value="current_goal" style="shape=partialRectangle;html=1;whiteSpace=wrap;connectable=0;strokeColor=inherit;overflow=hidden;fillColor=none;top=0;left=0;bottom=0;right=0;pointerEvents=1;fontSize=16;" vertex="1" parent="nTfqDTVIe5dX-x47f49g-147">
          <mxGeometry width="190" height="40" as="geometry">
            <mxRectangle width="190" height="40" as="alternateBounds" />
          </mxGeometry>
        </mxCell>
        <mxCell id="nTfqDTVIe5dX-x47f49g-149" value="VARCHAR, NULL" style="shape=partialRectangle;html=1;whiteSpace=wrap;connectable=0;strokeColor=inherit;overflow=hidden;fillColor=none;top=0;left=0;bottom=0;right=0;pointerEvents=1;fontSize=16;" vertex="1" parent="nTfqDTVIe5dX-x47f49g-147">
          <mxGeometry x="190" width="171" height="40" as="geometry">
            <mxRectangle width="171" height="40" as="alternateBounds" />
          </mxGeometry>
        </mxCell>
        <mxCell id="nTfqDTVIe5dX-x47f49g-150" style="shape=tableRow;horizontal=0;startSize=0;swimlaneHead=0;swimlaneBody=0;strokeColor=inherit;top=0;left=0;bottom=0;right=0;collapsible=0;dropTarget=0;fillColor=none;points=[[0,0.5],[1,0.5]];portConstraint=eastwest;fontSize=16;" vertex="1" parent="nTfqDTVIe5dX-x47f49g-104">
          <mxGeometry y="270" width="361" height="40" as="geometry" />
        </mxCell>
        <mxCell id="nTfqDTVIe5dX-x47f49g-151" value="bio" style="shape=partialRectangle;html=1;whiteSpace=wrap;connectable=0;strokeColor=inherit;overflow=hidden;fillColor=none;top=0;left=0;bottom=0;right=0;pointerEvents=1;fontSize=16;" vertex="1" parent="nTfqDTVIe5dX-x47f49g-150">
          <mxGeometry width="190" height="40" as="geometry">
            <mxRectangle width="190" height="40" as="alternateBounds" />
          </mxGeometry>
        </mxCell>
        <mxCell id="nTfqDTVIe5dX-x47f49g-152" value="VARCHAR, NULL" style="shape=partialRectangle;html=1;whiteSpace=wrap;connectable=0;strokeColor=inherit;overflow=hidden;fillColor=none;top=0;left=0;bottom=0;right=0;pointerEvents=1;fontSize=16;" vertex="1" parent="nTfqDTVIe5dX-x47f49g-150">
          <mxGeometry x="190" width="171" height="40" as="geometry">
            <mxRectangle width="171" height="40" as="alternateBounds" />
          </mxGeometry>
        </mxCell>
        <mxCell id="nTfqDTVIe5dX-x47f49g-153" style="shape=tableRow;horizontal=0;startSize=0;swimlaneHead=0;swimlaneBody=0;strokeColor=inherit;top=0;left=0;bottom=0;right=0;collapsible=0;dropTarget=0;fillColor=none;points=[[0,0.5],[1,0.5]];portConstraint=eastwest;fontSize=16;" vertex="1" parent="nTfqDTVIe5dX-x47f49g-104">
          <mxGeometry y="310" width="361" height="40" as="geometry" />
        </mxCell>
        <mxCell id="nTfqDTVIe5dX-x47f49g-154" value="avatar_url" style="shape=partialRectangle;html=1;whiteSpace=wrap;connectable=0;strokeColor=inherit;overflow=hidden;fillColor=none;top=0;left=0;bottom=0;right=0;pointerEvents=1;fontSize=16;" vertex="1" parent="nTfqDTVIe5dX-x47f49g-153">
          <mxGeometry width="190" height="40" as="geometry">
            <mxRectangle width="190" height="40" as="alternateBounds" />
          </mxGeometry>
        </mxCell>
        <mxCell id="nTfqDTVIe5dX-x47f49g-155" value="VARCHAR, NULL" style="shape=partialRectangle;html=1;whiteSpace=wrap;connectable=0;strokeColor=inherit;overflow=hidden;fillColor=none;top=0;left=0;bottom=0;right=0;pointerEvents=1;fontSize=16;" vertex="1" parent="nTfqDTVIe5dX-x47f49g-153">
          <mxGeometry x="190" width="171" height="40" as="geometry">
            <mxRectangle width="171" height="40" as="alternateBounds" />
          </mxGeometry>
        </mxCell>
        <mxCell id="nTfqDTVIe5dX-x47f49g-156" style="shape=tableRow;horizontal=0;startSize=0;swimlaneHead=0;swimlaneBody=0;strokeColor=inherit;top=0;left=0;bottom=0;right=0;collapsible=0;dropTarget=0;fillColor=none;points=[[0,0.5],[1,0.5]];portConstraint=eastwest;fontSize=16;" vertex="1" parent="nTfqDTVIe5dX-x47f49g-104">
          <mxGeometry y="350" width="361" height="40" as="geometry" />
        </mxCell>
        <mxCell id="nTfqDTVIe5dX-x47f49g-157" value="level" style="shape=partialRectangle;html=1;whiteSpace=wrap;connectable=0;strokeColor=inherit;overflow=hidden;fillColor=none;top=0;left=0;bottom=0;right=0;pointerEvents=1;fontSize=16;" vertex="1" parent="nTfqDTVIe5dX-x47f49g-156">
          <mxGeometry width="190" height="40" as="geometry">
            <mxRectangle width="190" height="40" as="alternateBounds" />
          </mxGeometry>
        </mxCell>
        <mxCell id="nTfqDTVIe5dX-x47f49g-158" value="INT" style="shape=partialRectangle;html=1;whiteSpace=wrap;connectable=0;strokeColor=inherit;overflow=hidden;fillColor=none;top=0;left=0;bottom=0;right=0;pointerEvents=1;fontSize=16;" vertex="1" parent="nTfqDTVIe5dX-x47f49g-156">
          <mxGeometry x="190" width="171" height="40" as="geometry">
            <mxRectangle width="171" height="40" as="alternateBounds" />
          </mxGeometry>
        </mxCell>
        <mxCell id="nTfqDTVIe5dX-x47f49g-159" style="shape=tableRow;horizontal=0;startSize=0;swimlaneHead=0;swimlaneBody=0;strokeColor=inherit;top=0;left=0;bottom=0;right=0;collapsible=0;dropTarget=0;fillColor=none;points=[[0,0.5],[1,0.5]];portConstraint=eastwest;fontSize=16;" vertex="1" parent="nTfqDTVIe5dX-x47f49g-104">
          <mxGeometry y="390" width="361" height="40" as="geometry" />
        </mxCell>
        <mxCell id="nTfqDTVIe5dX-x47f49g-160" value="xp" style="shape=partialRectangle;html=1;whiteSpace=wrap;connectable=0;strokeColor=inherit;overflow=hidden;fillColor=none;top=0;left=0;bottom=0;right=0;pointerEvents=1;fontSize=16;" vertex="1" parent="nTfqDTVIe5dX-x47f49g-159">
          <mxGeometry width="190" height="40" as="geometry">
            <mxRectangle width="190" height="40" as="alternateBounds" />
          </mxGeometry>
        </mxCell>
        <mxCell id="nTfqDTVIe5dX-x47f49g-161" value="INT" style="shape=partialRectangle;html=1;whiteSpace=wrap;connectable=0;strokeColor=inherit;overflow=hidden;fillColor=none;top=0;left=0;bottom=0;right=0;pointerEvents=1;fontSize=16;" vertex="1" parent="nTfqDTVIe5dX-x47f49g-159">
          <mxGeometry x="190" width="171" height="40" as="geometry">
            <mxRectangle width="171" height="40" as="alternateBounds" />
          </mxGeometry>
        </mxCell>
        <mxCell id="nTfqDTVIe5dX-x47f49g-168" style="shape=tableRow;horizontal=0;startSize=0;swimlaneHead=0;swimlaneBody=0;strokeColor=inherit;top=0;left=0;bottom=0;right=0;collapsible=0;dropTarget=0;fillColor=none;points=[[0,0.5],[1,0.5]];portConstraint=eastwest;fontSize=16;" vertex="1" parent="nTfqDTVIe5dX-x47f49g-104">
          <mxGeometry y="430" width="361" height="40" as="geometry" />
        </mxCell>
        <mxCell id="nTfqDTVIe5dX-x47f49g-169" value="total_missions_added" style="shape=partialRectangle;html=1;whiteSpace=wrap;connectable=0;strokeColor=inherit;overflow=hidden;fillColor=none;top=0;left=0;bottom=0;right=0;pointerEvents=1;fontSize=16;" vertex="1" parent="nTfqDTVIe5dX-x47f49g-168">
          <mxGeometry width="190" height="40" as="geometry">
            <mxRectangle width="190" height="40" as="alternateBounds" />
          </mxGeometry>
        </mxCell>
        <mxCell id="nTfqDTVIe5dX-x47f49g-170" value="INT" style="shape=partialRectangle;html=1;whiteSpace=wrap;connectable=0;strokeColor=inherit;overflow=hidden;fillColor=none;top=0;left=0;bottom=0;right=0;pointerEvents=1;fontSize=16;" vertex="1" parent="nTfqDTVIe5dX-x47f49g-168">
          <mxGeometry x="190" width="171" height="40" as="geometry">
            <mxRectangle width="171" height="40" as="alternateBounds" />
          </mxGeometry>
        </mxCell>
        <mxCell id="nTfqDTVIe5dX-x47f49g-165" style="shape=tableRow;horizontal=0;startSize=0;swimlaneHead=0;swimlaneBody=0;strokeColor=inherit;top=0;left=0;bottom=0;right=0;collapsible=0;dropTarget=0;fillColor=none;points=[[0,0.5],[1,0.5]];portConstraint=eastwest;fontSize=16;" vertex="1" parent="nTfqDTVIe5dX-x47f49g-104">
          <mxGeometry y="470" width="361" height="40" as="geometry" />
        </mxCell>
        <mxCell id="nTfqDTVIe5dX-x47f49g-166" value="total_missions_completed" style="shape=partialRectangle;html=1;whiteSpace=wrap;connectable=0;strokeColor=inherit;overflow=hidden;fillColor=none;top=0;left=0;bottom=0;right=0;pointerEvents=1;fontSize=16;" vertex="1" parent="nTfqDTVIe5dX-x47f49g-165">
          <mxGeometry width="190" height="40" as="geometry">
            <mxRectangle width="190" height="40" as="alternateBounds" />
          </mxGeometry>
        </mxCell>
        <mxCell id="nTfqDTVIe5dX-x47f49g-167" value="INT" style="shape=partialRectangle;html=1;whiteSpace=wrap;connectable=0;strokeColor=inherit;overflow=hidden;fillColor=none;top=0;left=0;bottom=0;right=0;pointerEvents=1;fontSize=16;" vertex="1" parent="nTfqDTVIe5dX-x47f49g-165">
          <mxGeometry x="190" width="171" height="40" as="geometry">
            <mxRectangle width="171" height="40" as="alternateBounds" />
          </mxGeometry>
        </mxCell>
        <mxCell id="nTfqDTVIe5dX-x47f49g-162" style="shape=tableRow;horizontal=0;startSize=0;swimlaneHead=0;swimlaneBody=0;strokeColor=inherit;top=0;left=0;bottom=0;right=0;collapsible=0;dropTarget=0;fillColor=none;points=[[0,0.5],[1,0.5]];portConstraint=eastwest;fontSize=16;" vertex="1" parent="nTfqDTVIe5dX-x47f49g-104">
          <mxGeometry y="510" width="361" height="40" as="geometry" />
        </mxCell>
        <mxCell id="nTfqDTVIe5dX-x47f49g-163" value="has_completed_tutorial" style="shape=partialRectangle;html=1;whiteSpace=wrap;connectable=0;strokeColor=inherit;overflow=hidden;fillColor=none;top=0;left=0;bottom=0;right=0;pointerEvents=1;fontSize=16;" vertex="1" parent="nTfqDTVIe5dX-x47f49g-162">
          <mxGeometry width="190" height="40" as="geometry">
            <mxRectangle width="190" height="40" as="alternateBounds" />
          </mxGeometry>
        </mxCell>
        <mxCell id="nTfqDTVIe5dX-x47f49g-164" value="BOOL" style="shape=partialRectangle;html=1;whiteSpace=wrap;connectable=0;strokeColor=inherit;overflow=hidden;fillColor=none;top=0;left=0;bottom=0;right=0;pointerEvents=1;fontSize=16;" vertex="1" parent="nTfqDTVIe5dX-x47f49g-162">
          <mxGeometry x="190" width="171" height="40" as="geometry">
            <mxRectangle width="171" height="40" as="alternateBounds" />
          </mxGeometry>
        </mxCell>
        <mxCell id="nTfqDTVIe5dX-x47f49g-192" value="UserAchievements" style="shape=table;startSize=30;container=1;collapsible=0;childLayout=tableLayout;strokeColor=#6c8ebf;fontSize=16;fillColor=#dae8fc;" vertex="1" parent="1">
          <mxGeometry x="2719.5" y="1630" width="360" height="230" as="geometry" />
        </mxCell>
        <mxCell id="nTfqDTVIe5dX-x47f49g-193" value="" style="shape=tableRow;horizontal=0;startSize=0;swimlaneHead=0;swimlaneBody=0;strokeColor=inherit;top=0;left=0;bottom=0;right=0;collapsible=0;dropTarget=0;fillColor=none;points=[[0,0.5],[1,0.5]];portConstraint=eastwest;fontSize=16;" vertex="1" parent="nTfqDTVIe5dX-x47f49g-192">
          <mxGeometry y="30" width="360" height="40" as="geometry" />
        </mxCell>
        <mxCell id="nTfqDTVIe5dX-x47f49g-194" value="id" style="shape=partialRectangle;html=1;whiteSpace=wrap;connectable=0;strokeColor=inherit;overflow=hidden;fillColor=none;top=0;left=0;bottom=0;right=0;pointerEvents=1;fontSize=16;" vertex="1" parent="nTfqDTVIe5dX-x47f49g-193">
          <mxGeometry width="180" height="40" as="geometry">
            <mxRectangle width="180" height="40" as="alternateBounds" />
          </mxGeometry>
        </mxCell>
        <mxCell id="nTfqDTVIe5dX-x47f49g-195" value="INT, PK" style="shape=partialRectangle;html=1;whiteSpace=wrap;connectable=0;strokeColor=inherit;overflow=hidden;fillColor=none;top=0;left=0;bottom=0;right=0;pointerEvents=1;fontSize=16;" vertex="1" parent="nTfqDTVIe5dX-x47f49g-193">
          <mxGeometry x="180" width="180" height="40" as="geometry">
            <mxRectangle width="180" height="40" as="alternateBounds" />
          </mxGeometry>
        </mxCell>
        <mxCell id="nTfqDTVIe5dX-x47f49g-196" value="" style="shape=tableRow;horizontal=0;startSize=0;swimlaneHead=0;swimlaneBody=0;strokeColor=inherit;top=0;left=0;bottom=0;right=0;collapsible=0;dropTarget=0;fillColor=none;points=[[0,0.5],[1,0.5]];portConstraint=eastwest;fontSize=16;" vertex="1" parent="nTfqDTVIe5dX-x47f49g-192">
          <mxGeometry y="70" width="360" height="40" as="geometry" />
        </mxCell>
        <mxCell id="nTfqDTVIe5dX-x47f49g-197" value="user_id" style="shape=partialRectangle;html=1;whiteSpace=wrap;connectable=0;strokeColor=inherit;overflow=hidden;fillColor=none;top=0;left=0;bottom=0;right=0;pointerEvents=1;fontSize=16;" vertex="1" parent="nTfqDTVIe5dX-x47f49g-196">
          <mxGeometry width="180" height="40" as="geometry">
            <mxRectangle width="180" height="40" as="alternateBounds" />
          </mxGeometry>
        </mxCell>
        <mxCell id="nTfqDTVIe5dX-x47f49g-198" value="FK(Users)" style="shape=partialRectangle;html=1;whiteSpace=wrap;connectable=0;strokeColor=inherit;overflow=hidden;fillColor=none;top=0;left=0;bottom=0;right=0;pointerEvents=1;fontSize=16;" vertex="1" parent="nTfqDTVIe5dX-x47f49g-196">
          <mxGeometry x="180" width="180" height="40" as="geometry">
            <mxRectangle width="180" height="40" as="alternateBounds" />
          </mxGeometry>
        </mxCell>
        <mxCell id="nTfqDTVIe5dX-x47f49g-199" value="" style="shape=tableRow;horizontal=0;startSize=0;swimlaneHead=0;swimlaneBody=0;strokeColor=inherit;top=0;left=0;bottom=0;right=0;collapsible=0;dropTarget=0;fillColor=none;points=[[0,0.5],[1,0.5]];portConstraint=eastwest;fontSize=16;" vertex="1" parent="nTfqDTVIe5dX-x47f49g-192">
          <mxGeometry y="110" width="360" height="40" as="geometry" />
        </mxCell>
        <mxCell id="nTfqDTVIe5dX-x47f49g-200" value="achievement_id" style="shape=partialRectangle;html=1;whiteSpace=wrap;connectable=0;strokeColor=inherit;overflow=hidden;fillColor=none;top=0;left=0;bottom=0;right=0;pointerEvents=1;fontSize=16;" vertex="1" parent="nTfqDTVIe5dX-x47f49g-199">
          <mxGeometry width="180" height="40" as="geometry">
            <mxRectangle width="180" height="40" as="alternateBounds" />
          </mxGeometry>
        </mxCell>
        <mxCell id="nTfqDTVIe5dX-x47f49g-201" value="FK(Achievements)" style="shape=partialRectangle;html=1;whiteSpace=wrap;connectable=0;strokeColor=inherit;overflow=hidden;fillColor=none;top=0;left=0;bottom=0;right=0;pointerEvents=1;fontSize=16;" vertex="1" parent="nTfqDTVIe5dX-x47f49g-199">
          <mxGeometry x="180" width="180" height="40" as="geometry">
            <mxRectangle width="180" height="40" as="alternateBounds" />
          </mxGeometry>
        </mxCell>
        <mxCell id="nTfqDTVIe5dX-x47f49g-202" style="shape=tableRow;horizontal=0;startSize=0;swimlaneHead=0;swimlaneBody=0;strokeColor=inherit;top=0;left=0;bottom=0;right=0;collapsible=0;dropTarget=0;fillColor=none;points=[[0,0.5],[1,0.5]];portConstraint=eastwest;fontSize=16;" vertex="1" parent="nTfqDTVIe5dX-x47f49g-192">
          <mxGeometry y="150" width="360" height="40" as="geometry" />
        </mxCell>
        <mxCell id="nTfqDTVIe5dX-x47f49g-203" value="is_unlocked" style="shape=partialRectangle;html=1;whiteSpace=wrap;connectable=0;strokeColor=inherit;overflow=hidden;fillColor=none;top=0;left=0;bottom=0;right=0;pointerEvents=1;fontSize=16;" vertex="1" parent="nTfqDTVIe5dX-x47f49g-202">
          <mxGeometry width="180" height="40" as="geometry">
            <mxRectangle width="180" height="40" as="alternateBounds" />
          </mxGeometry>
        </mxCell>
        <mxCell id="nTfqDTVIe5dX-x47f49g-204" value="BOOL" style="shape=partialRectangle;html=1;whiteSpace=wrap;connectable=0;strokeColor=inherit;overflow=hidden;fillColor=none;top=0;left=0;bottom=0;right=0;pointerEvents=1;fontSize=16;" vertex="1" parent="nTfqDTVIe5dX-x47f49g-202">
          <mxGeometry x="180" width="180" height="40" as="geometry">
            <mxRectangle width="180" height="40" as="alternateBounds" />
          </mxGeometry>
        </mxCell>
        <mxCell id="nTfqDTVIe5dX-x47f49g-205" style="shape=tableRow;horizontal=0;startSize=0;swimlaneHead=0;swimlaneBody=0;strokeColor=inherit;top=0;left=0;bottom=0;right=0;collapsible=0;dropTarget=0;fillColor=none;points=[[0,0.5],[1,0.5]];portConstraint=eastwest;fontSize=16;" vertex="1" parent="nTfqDTVIe5dX-x47f49g-192">
          <mxGeometry y="190" width="360" height="40" as="geometry" />
        </mxCell>
        <mxCell id="nTfqDTVIe5dX-x47f49g-206" value="unlocked_at" style="shape=partialRectangle;html=1;whiteSpace=wrap;connectable=0;strokeColor=inherit;overflow=hidden;fillColor=none;top=0;left=0;bottom=0;right=0;pointerEvents=1;fontSize=16;" vertex="1" parent="nTfqDTVIe5dX-x47f49g-205">
          <mxGeometry width="180" height="40" as="geometry">
            <mxRectangle width="180" height="40" as="alternateBounds" />
          </mxGeometry>
        </mxCell>
        <mxCell id="nTfqDTVIe5dX-x47f49g-207" value="DATE, NULL" style="shape=partialRectangle;html=1;whiteSpace=wrap;connectable=0;strokeColor=inherit;overflow=hidden;fillColor=none;top=0;left=0;bottom=0;right=0;pointerEvents=1;fontSize=16;" vertex="1" parent="nTfqDTVIe5dX-x47f49g-205">
          <mxGeometry x="180" width="180" height="40" as="geometry">
            <mxRectangle width="180" height="40" as="alternateBounds" />
          </mxGeometry>
        </mxCell>
        <mxCell id="nTfqDTVIe5dX-x47f49g-210" style="edgeStyle=orthogonalEdgeStyle;rounded=0;orthogonalLoop=1;jettySize=auto;html=1;entryX=0;entryY=0.5;entryDx=0;entryDy=0;" edge="1" parent="1" source="nTfqDTVIe5dX-x47f49g-105" target="nTfqDTVIe5dX-x47f49g-129">
          <mxGeometry relative="1" as="geometry" />
        </mxCell>
        <mxCell id="nTfqDTVIe5dX-x47f49g-211" style="edgeStyle=orthogonalEdgeStyle;rounded=0;orthogonalLoop=1;jettySize=auto;html=1;exitX=0;exitY=0.5;exitDx=0;exitDy=0;entryX=0;entryY=0.5;entryDx=0;entryDy=0;" edge="1" parent="1" source="nTfqDTVIe5dX-x47f49g-61" target="nTfqDTVIe5dX-x47f49g-135">
          <mxGeometry relative="1" as="geometry">
            <Array as="points">
              <mxPoint x="2680" y="722" />
              <mxPoint x="2680" y="1300" />
            </Array>
          </mxGeometry>
        </mxCell>
        <mxCell id="nTfqDTVIe5dX-x47f49g-212" style="edgeStyle=orthogonalEdgeStyle;rounded=0;orthogonalLoop=1;jettySize=auto;html=1;exitX=0;exitY=0.5;exitDx=0;exitDy=0;entryX=0;entryY=0.5;entryDx=0;entryDy=0;" edge="1" parent="1" source="nTfqDTVIe5dX-x47f49g-105" target="nTfqDTVIe5dX-x47f49g-196">
          <mxGeometry relative="1" as="geometry" />
        </mxCell>
        <mxCell id="nTfqDTVIe5dX-x47f49g-213" style="edgeStyle=orthogonalEdgeStyle;rounded=0;orthogonalLoop=1;jettySize=auto;html=1;entryX=0;entryY=0.5;entryDx=0;entryDy=0;" edge="1" parent="1" source="nTfqDTVIe5dX-x47f49g-95" target="nTfqDTVIe5dX-x47f49g-199">
          <mxGeometry relative="1" as="geometry">
            <Array as="points">
              <mxPoint x="2670" y="1410" />
              <mxPoint x="2670" y="1760" />
            </Array>
          </mxGeometry>
        </mxCell>
      </root>
    </mxGraphModel>
  </diagram>
</mxfile>
